<svg id="Layer_1" data-name="Layer 1" xmlns="http://www.w3.org/2000/svg" width="792" height="612" viewBox="0 0 792 612">
    <rect width="792" height="470.41" fill="#414042"/>
    <path d="M398,363.06,269.79,449.63c-17.15-15.5-26-38.89-20.58-67.45V363.06Z" fill="#e0861a"/>
    <polygon points="271.3 291.5 235.85 295.46 258.29 258.29 271.3 291.5" fill="#fff" stroke="#f7941d" stroke-miterlimit="10" stroke-width="3"/>
    <path d="M557,451v19.11H337.11a105.12,105.12,0,0,1-24.71-.93c1.17,0,2.35-.12,3.53-.21H535.85V449.83a87.93,87.93,0,0,0-73.74-86.77h7A87.91,87.91,0,0,1,557,451Z" fill="#e0861a"/>
    <path d="M535.85,449.83v19.11H315.93c-1.18.09-2.36.16-3.53.21-16.68-2.64-31.43-9.4-42.61-19.52L398,363.06h64.07A87.93,87.93,0,0,1,535.85,449.83Z" fill="#f7941d"/>
    <polygon points="374.56 349.99 277.75 413.84 224.48 263.34 374.56 349.99" fill="#fbb040"/>
    <polygon points="374.56 349.81 352.47 337.23 352.47 364.56 374.56 349.81" fill="#231f20"/>
    <line x1="313" y1="404.87" x2="330.6" y2="368.6" fill="none" stroke="#231f20" stroke-miterlimit="10" stroke-width="3"/>
    <line x1="291.67" y1="388.87" x2="320.47" y2="366.73" fill="none" stroke="#231f20" stroke-miterlimit="10" stroke-width="3"/>
    <line x1="318.6" y1="358.73" x2="279.67" y2="360.79" fill="none" stroke="#231f20" stroke-miterlimit="10" stroke-width="3"/>
    <polygon points="211.12 153.84 200.62 175.34 212.38 196.17 188.69 192.83 172.51 210.45 168.37 186.89 146.61 176.94 167.74 165.73 170.47 141.96 187.67 158.59 211.12 153.84" fill="#939598"/>
    <polygon points="337.27 174.73 331.57 182.29 337 190.04 328.05 186.96 322.36 194.51 322.53 185.05 313.58 181.97 322.63 179.21 322.8 169.75 328.22 177.5 337.27 174.73" fill="#939598"/>
    <polygon points="477 152.33 471.87 164.34 478.86 175.38 465.85 174.21 457.51 184.27 454.6 171.53 442.46 166.71 453.67 160.01 454.51 146.97 464.35 155.57 477 152.33" fill="#939598"/>
    <polygon points="402.33 267 397.24 271.88 398.38 278.85 392.16 275.51 385.88 278.75 387.13 271.8 382.12 266.83 389.11 265.88 392.29 259.57 395.36 265.93 402.33 267" fill="#939598"/>
    <polygon points="511.13 237.13 504.44 244.78 506.95 254.63 497.61 250.63 489.01 256.05 489.93 245.93 482.12 239.44 492.03 237.19 495.79 227.75 500.99 236.47 511.13 237.13" fill="#939598"/>
    <polygon points="642.87 167 632.55 186.51 642.77 206.07 621.03 202.28 605.59 218.05 602.47 196.2 582.7 186.38 602.51 176.67 605.74 154.84 621.11 170.68 642.87 167" fill="#939598"/>
    <path class="tail" d="M612.78,264.87v148a57.52,57.52,0,0,1-57.52,57.53H553V458.67A65.86,65.86,0,0,0,606.68,394V265c1.27-.09,2.56-.13,3.85-.13Z" fill="#e0861a"/>
    <path d="M606.68,265V394A65.86,65.86,0,0,1,553,458.67V322.39A57.53,57.53,0,0,1,606.68,265Z" fill="#f7941d"/>
    <path d="M605.53,276.07h0a0,0,0,0,1,0,0v77.87A33.07,33.07,0,0,1,572.47,387h0a0,0,0,0,1,0,0V309.13a33.07,33.07,0,0,1,33.07-33.07Z" fill="#fff"/>
    <polygon points="325.71 423.8 331.63 486.6 319.8 486.6 325.71 423.8" fill="#939598"/>
    <polygon points="347.32 445.81 313.44 499.02 304.11 491.76 347.32 445.81" fill="#939598"/>
    <polygon points="302.82 440.58 343.52 488.91 331.86 496.7 302.82 440.58" fill="#939598"/>
    <polygon points="502.4 432.6 508.14 490.86 496.67 490.86 502.4 432.6" fill="#939598"/>
    <polygon points="523.36 453.02 490.51 502.38 481.45 495.64 523.36 453.02" fill="#939598"/>
    <polygon points="480.2 448.16 519.67 493 508.36 500.22 480.2 448.16" fill="#939598"/>
    <polygon points="792 612 0 612 0 470.41 316.63 470.41 792 612" fill="#939598"/>
    <path d="M277.75,413.84,274.43,416c-19.45,12.83-45.43-.66-46.12-23.95l-3.83-128.74Z" fill="#e0861a"/>
    <path d="M245.34,326.2c5.53,6.19,17.29,7.7,31,4.48" fill="none" stroke="#231f20" stroke-miterlimit="10" stroke-width="3"/>
    <polygon points="792 470.41 792 612 316.63 470.41 792 470.41" fill="#58595b"/>
</svg>