<svg xmlns="http://www.w3.org/2000/svg" width="85.01" height="154.28" viewBox="0 0 85.01 154.28">
  <g id="Layer_2" data-name="Layer 2">
    <g id="Layer_1-2" data-name="Layer 1">
      <g>
        <path d="M84.51.78a102.64,102.64,0,0,1-42,9,102.8,102.8,0,0,1-42-9q.51,31.5,1,63l49,1c1,4,3,41-5,50-14.85,26.28-42,30.6-45,31v8c5.17,0,42.92-.5,67-31,14-17.68,16.44-36.71,17-45Z" fill="none" stroke="#000" stroke-miterlimit="10"/>
        <path d="M1.51,69.78c0,22.66-.1,47.53-.1,70.2a48.88,48.88,0,0,0,30.7-16.1c8.78-9.7,12.9-22.2,13.4-27.1,1-8,.27-17.8.6-26.8C31.11,70,16.51,69.78,1.51,69.78Z" fill="none" stroke="#000" stroke-miterlimit="10"/>
        <path d="M23.51,17.78c7.23,0,12.76,6.25,13,13,.26,7.16-5.48,14-13,14s-13.26-6.84-13-14C10.75,24,16.29,17.78,23.51,17.78Z" fill="none" stroke="#000" stroke-miterlimit="10"/>
        <path d="M23.51,20.78a10.61,10.61,0,0,1,11,10,10.66,10.66,0,0,1-21.3.75A10.63,10.63,0,0,1,23.51,20.78Z" fill="none" stroke="#000" stroke-miterlimit="10"/>
        <path d="M63,17.68c7.23,0,12.76,6.25,13,13,.26,7.16-5.48,14-13,14s-13.26-6.84-13-14C50.25,23.93,55.79,17.68,63,17.68Z" fill="none" stroke="#000" stroke-miterlimit="10"/>
        <path d="M63,20.68a10.61,10.61,0,0,1,11,10,10.66,10.66,0,0,1-21.3.75A10.63,10.63,0,0,1,63,20.68Z" fill="none" stroke="#000" stroke-miterlimit="10"/>
        <path d="M40.33,51.9a12,12,0,0,0,2.72.38h.21A11.41,11.41,0,0,0,45.73,52c-.93,1.29-1.86,2.58-2.74,3.74-.86-1.2-1.76-2.53-2.66-3.84m11.45-5.56-.07.1.07-.1Zm-17.1.07.07.1-.07-.1Zm17,0a11.08,11.08,0,0,1-8.45,4.34h-.18a10.88,10.88,0,0,1-8.33-4.27c2.52,3.4,5.69,8.37,8.2,11.73,2.67-3.33,6.07-8.44,8.76-11.8Z"/>
      </g>
    </g>
  </g>
</svg>
